<?xml version="1.0" encoding="utf-8"?>
<!-- Svg Vector Icons : http://www.onlinewebfonts.com/icon -->
<!DOCTYPE svg PUBLIC "-//W3C//DTD SVG 1.1//EN" "http://www.w3.org/Graphics/SVG/1.1/DTD/svg11.dtd">
<svg version="1.1" xmlns="http://www.w3.org/2000/svg" xmlns:xlink="http://www.w3.org/1999/xlink" x="0px" y="0px" viewBox="0 0 1000 1000" enable-background="new 0 0 1000 1000" xml:space="preserve">
<metadata> Svg Vector Icons : http://www.onlinewebfonts.com/icon </metadata>
<g><path d="M500,10c-212.3,0-385,172.7-385,385c0,204.9,345,568.8,359.7,584.1c6.6,7,15.8,10.8,25.3,10.8h0.8c9.8,0,19.1-4.6,25.6-12l119.5-136.8C804.5,646.8,885,496.6,885,395C885,182.7,712.3,10,500,10L500,10z M500,570c-96.7,0-175-78.3-175-175c0-96.7,78.3-175,175-175c96.7,0,175,78.3,175,175C675,491.7,596.7,570,500,570L500,570z"/></g>
</svg>